# xmcd
#
# Track frame offsets: 
#        150
#        27036
#        44325
#        69179
#        78530
#        89547
#        118912
#        142185
#        156472
#        170765
#        192867
#        216148
#        247430
#        280110
#        298757
#        313419
#        338595
#
# Disc length: 4742 seconds
#
# Revision: 0
# Processed by: cddbd v1.5.2PL0 Copyright (c) Steve Scherf et al.
# Submitted via: ExactAudioCopyFreeDBPlugin 1.0
#
DISCID=10128411
DTITLE=Flemish Polyphony - Flemish Polyphony (Ricercar, 8cd, 2011) [di
DTITLE=sc 1]
DYEAR=2011
DGENRE=Bluegrass
TTITLE0=Etienne de Liège - Invitatorium Deum verum [Psallentes]
TTITLE1=Johannes Ciconia - Gloria 1 à 3 voix [Diabolus in Musica]
TTITLE2=Ciconia - Una Panthera [La Morra]
TTITLE3=Anonymous - Jesus ad templum à 2 voix [Capilla Flamenca]
TTITLE4=Anonymous - Omnes Mauritium à 2 voix [Capilla Flamenca]
TTITLE5=Anonymous - Credo à 4 voix [Capilla Flamenca]
TTITLE6=Nicolas Grenon - Ave virtus and Prophetarum [Capilla Flamenca]
TTITLE7=Johannes Franchois - Ave virgo and Sancta Maria [Capilla Flamenc
TTITLE7=a]
TTITLE8=Arnold de Lantins - O pulcherina mulierum [Capilla Flamenca]
TTITLE9=De Lantins - Missa verbum incarnatum - I. Kyrie [Capilla Flame
TTITLE9=nca]
TTITLE10=De Lantins - Missa verbum incarnatum - II. Gloria
TTITLE11=Gregorian - Liber generationis
TTITLE12=De Lantins - Missa verbum incarnatum - III. Credo
TTITLE13=De Lantins - Missa verbum incarnatum - IV. Sanctus
TTITLE14=de Lantins - Missa verbum incarnatum - V. Agnus Dei
TTITLE15=Guillaume Dufay - Salve flos Tusce [Ensemble Musica Nova]
TTITLE16=Dufay - Flos florum [Ensemble Musica Nova]
EXTD=
EXTT0=
EXTT1=
EXTT2=
EXTT3=
EXTT4=
EXTT5=
EXTT6=
EXTT7=
EXTT8=
EXTT9=
EXTT10=
EXTT11=
EXTT12=
EXTT13=
EXTT14=
EXTT15=
EXTT16=
PLAYORDER=
